<?xml version="1.0" standalone="no"?>
<!DOCTYPE svg PUBLIC "-//W3C//DTD SVG 20010904//EN"
 "http://www.w3.org/TR/2001/REC-SVG-20010904/DTD/svg10.dtd">
<svg version="1.0" xmlns="http://www.w3.org/2000/svg"
 width="1844.000000pt" height="4096.000000pt" viewBox="0 0 1844.000000 4096.000000"
 preserveAspectRatio="xMidYMid meet">

<g transform="translate(0.000000,4096.000000) scale(0.100000,-0.100000)"
fill="#000000" stroke="none">
<path d="M1954 29089 c-32 -62 -158 -566 -214 -854 -262 -1357 -393 -3199
-315 -4415 18 -265 52 -622 65 -665 5 -16 12 -50 15 -75 13 -90 67 -377 85
-455 11 -44 24 -107 29 -140 16 -98 39 -195 101 -439 72 -285 97 -366 115
-372 15 -6 65 33 65 52 0 6 7 14 15 18 8 3 15 11 15 18 0 7 9 19 20 26 11 7
20 18 20 25 0 7 9 18 20 25 11 7 20 17 20 23 0 6 14 22 30 36 17 13 30 29 30
35 0 6 11 19 25 30 14 11 25 24 25 29 0 5 16 23 35 40 19 17 35 35 35 40 0 5
16 23 35 40 19 17 35 35 35 41 0 5 14 21 30 35 17 13 30 29 30 33 0 5 29 36
65 71 36 34 65 65 65 69 0 13 311 313 501 482 107 97 238 206 290 243 98 71
118 91 119 114 0 22 -63 6 -114 -28 -25 -17 -47 -31 -51 -31 -32 0 -435 -351
-635 -554 -41 -42 -78 -76 -82 -76 -5 0 -8 24 -8 53 0 29 -7 76 -14 103 -32
108 -75 419 -105 759 -71 794 -54 1434 60 2265 41 303 150 825 238 1150 16 58
43 158 61 222 66 247 195 619 336 974 46 117 58 142 88 186 l18 27 102 -107
c158 -165 202 -216 209 -235 4 -9 18 -22 32 -27 14 -5 28 -17 32 -27 4 -9 24
-33 45 -54 21 -20 38 -40 38 -44 0 -5 18 -23 40 -42 22 -19 40 -41 40 -48 0
-8 14 -24 30 -37 17 -12 30 -26 30 -31 0 -6 18 -25 40 -44 22 -19 40 -41 40
-48 0 -8 9 -19 20 -25 11 -6 20 -17 20 -25 0 -7 23 -33 50 -56 28 -23 50 -48
50 -55 0 -7 9 -18 20 -24 11 -6 20 -17 20 -25 0 -8 14 -24 30 -37 17 -12 30
-27 30 -34 0 -7 22 -32 50 -57 28 -25 50 -50 50 -55 0 -5 7 -12 15 -16 8 -3
15 -11 15 -17 0 -7 16 -27 35 -46 19 -19 35 -40 35 -48 0 -8 9 -19 20 -25 11
-6 20 -17 20 -24 0 -8 7 -16 15 -20 8 -3 15 -12 15 -20 0 -9 8 -20 18 -25 10
-5 24 -22 32 -37 8 -15 25 -39 38 -52 12 -14 22 -29 22 -34 0 -5 15 -24 33
-43 18 -19 40 -46 48 -61 8 -15 26 -41 41 -58 38 -44 74 -95 94 -136 10 -19
21 -37 25 -40 21 -16 148 -198 166 -240 4 -8 12 -19 18 -25 12 -10 125 -182
125 -190 0 -2 11 -16 25 -31 14 -15 25 -35 25 -45 0 -11 4 -19 9 -19 12 0 81
-106 81 -125 0 -8 4 -15 9 -15 5 0 22 -21 38 -47 17 -27 63 -102 104 -168 41
-65 76 -124 78 -130 2 -5 25 -44 51 -85 26 -41 66 -109 90 -150 24 -41 54 -92
67 -112 12 -21 23 -40 23 -43 0 -3 12 -24 27 -48 14 -23 40 -67 56 -97 16 -30
36 -62 43 -71 8 -8 14 -21 14 -27 0 -6 34 -68 76 -139 42 -70 81 -141 87 -158
5 -16 18 -37 28 -45 38 -32 249 -444 339 -660 28 -69 64 -152 80 -185 16 -33
47 -100 70 -150 23 -49 55 -119 72 -155 17 -36 46 -99 65 -140 20 -41 39 -84
43 -95 5 -11 24 -54 44 -95 20 -41 36 -79 36 -83 0 -4 15 -40 34 -80 32 -68
57 -127 75 -172 5 -11 18 -40 30 -63 11 -24 21 -49 21 -54 0 -10 37 -95 61
-140 5 -10 9 -23 9 -29 0 -10 8 -31 50 -124 10 -22 24 -56 30 -75 19 -51 39
-100 61 -143 10 -22 19 -46 19 -54 0 -14 11 -43 51 -128 10 -22 27 -71 38
-108 12 -38 27 -83 35 -100 7 -18 26 -72 41 -122 16 -49 32 -94 37 -99 4 -6 8
-20 8 -32 0 -13 5 -26 10 -29 6 -3 10 -15 10 -26 0 -10 11 -42 25 -71 14 -28
25 -58 25 -65 0 -7 4 -21 9 -31 5 -9 17 -44 27 -77 10 -33 22 -64 26 -69 4 -6
8 -18 8 -28 0 -10 4 -26 9 -36 5 -9 17 -44 26 -77 26 -93 38 -129 47 -139 4
-6 8 -18 8 -28 0 -10 4 -26 9 -36 5 -9 17 -45 27 -80 10 -35 21 -65 26 -68 4
-3 8 -16 8 -29 0 -13 5 -27 10 -30 6 -3 10 -14 10 -23 0 -17 42 -157 59 -197
5 -11 17 -47 26 -80 32 -113 51 -176 65 -210 4 -11 15 -49 25 -85 9 -36 21
-73 26 -82 5 -10 9 -25 9 -33 0 -8 4 -23 9 -33 5 -9 17 -44 26 -77 10 -33 21
-68 26 -77 5 -10 9 -27 9 -37 0 -11 5 -23 10 -26 6 -3 10 -19 10 -35 0 -16 4
-31 9 -34 5 -3 12 -26 15 -51 4 -24 11 -47 17 -50 5 -4 9 -17 9 -30 0 -13 5
-27 10 -30 6 -3 10 -17 10 -30 0 -13 5 -27 10 -30 6 -3 10 -16 10 -27 0 -21
25 -114 41 -153 4 -11 13 -38 20 -60 6 -22 15 -51 20 -65 4 -14 11 -42 15 -63
3 -20 10 -40 15 -43 5 -3 9 -18 9 -34 0 -16 5 -32 10 -35 6 -3 10 -17 10 -30
0 -13 4 -26 9 -29 4 -3 11 -23 14 -43 7 -44 43 -160 57 -185 6 -10 10 -29 10
-43 0 -14 7 -42 15 -62 8 -19 15 -46 15 -59 0 -12 5 -26 10 -29 6 -3 10 -15
10 -26 0 -10 4 -27 9 -37 5 -9 14 -35 20 -57 29 -114 44 -162 52 -177 5 -10 9
-29 9 -42 0 -14 4 -27 9 -30 4 -3 11 -28 15 -55 4 -28 11 -53 16 -56 6 -3 10
-19 10 -35 0 -16 5 -32 10 -35 6 -3 10 -19 10 -34 0 -15 4 -31 8 -37 5 -5 17
-45 27 -89 10 -44 22 -84 27 -89 4 -6 8 -22 8 -37 0 -15 5 -31 10 -34 6 -3 10
-15 10 -26 0 -11 7 -44 16 -72 8 -29 20 -70 26 -92 22 -84 31 -111 39 -127 5
-10 9 -27 9 -38 0 -10 6 -39 14 -62 7 -24 19 -63 26 -88 7 -25 16 -54 20 -65
4 -11 16 -56 25 -100 10 -44 22 -84 27 -90 4 -5 8 -19 8 -32 0 -13 4 -31 9
-41 10 -18 49 -175 58 -230 3 -18 9 -35 14 -38 5 -3 9 -18 9 -33 0 -15 3 -31
7 -35 8 -7 29 -90 40 -154 3 -18 9 -35 14 -38 5 -3 9 -18 9 -34 0 -16 4 -31 9
-34 5 -3 11 -23 13 -43 6 -46 27 -132 39 -155 5 -10 9 -29 9 -42 0 -14 4 -27
9 -30 5 -3 11 -20 14 -38 3 -18 13 -64 22 -103 9 -38 19 -85 22 -103 3 -18 9
-35 14 -38 5 -3 9 -16 9 -29 0 -13 4 -34 9 -47 5 -13 17 -57 26 -98 19 -86 34
-138 46 -162 5 -10 9 -28 9 -40 1 -34 38 -168 51 -184 15 -18 43 -18 58 0 13
16 50 150 51 184 0 12 4 30 9 40 12 24 27 76 46 162 9 41 21 85 26 98 5 13 9
34 9 47 0 13 4 26 9 29 5 3 11 20 14 38 3 18 13 65 22 103 9 39 19 85 22 103
3 18 9 35 14 38 5 3 9 16 9 30 0 13 4 32 9 42 12 23 33 109 39 155 2 20 8 40
13 43 5 3 9 18 9 34 0 16 4 31 9 34 5 3 11 20 14 38 11 64 32 147 40 154 4 4
7 20 7 35 0 15 4 30 9 33 5 3 11 20 14 38 9 55 48 212 58 230 5 10 9 28 9 41
0 13 4 27 8 33 5 5 17 45 27 89 9 44 21 89 25 100 4 11 13 40 20 65 7 25 19
64 26 88 8 23 14 52 14 62 0 11 4 28 9 38 5 9 15 37 21 62 7 25 16 59 21 75 4
17 15 53 24 82 8 28 15 61 15 72 0 11 5 23 10 26 5 3 10 19 10 34 0 15 4 31 8
37 5 5 17 45 27 89 10 44 22 84 27 90 4 5 8 21 8 36 0 15 5 31 10 34 5 3 10
19 10 35 0 16 4 32 10 35 5 3 12 28 16 56 4 27 11 52 15 55 5 3 9 16 9 30 0
13 4 32 9 42 8 15 23 63 52 177 6 22 15 48 20 57 5 10 9 27 9 37 0 11 5 23 10
26 6 3 10 17 10 29 0 13 7 40 15 59 8 20 15 48 15 62 0 14 4 33 10 43 14 25
50 141 57 185 3 20 10 40 14 43 5 3 9 16 9 29 0 13 5 27 10 30 6 3 10 19 10
35 0 16 4 31 9 34 5 3 12 23 15 43 4 21 11 49 15 63 5 14 14 43 20 65 7 22 16
49 20 60 16 39 41 132 41 153 0 11 5 24 10 27 6 3 10 17 10 30 0 13 5 27 10
30 6 3 10 17 10 30 0 13 4 26 9 30 6 3 13 26 17 50 3 25 10 48 15 51 5 3 9 18
9 34 0 16 5 32 10 35 6 3 10 15 10 26 0 10 4 27 9 37 5 9 16 44 26 77 9 33 21
68 26 77 5 10 9 25 9 33 0 8 4 23 9 33 5 9 17 46 26 82 10 36 21 74 25 85 13
32 27 76 45 140 27 96 37 129 46 150 18 44 59 180 59 197 0 9 5 20 10 23 6 3
10 17 10 30 0 13 4 26 8 29 5 3 16 33 26 68 10 35 22 71 27 80 5 10 9 26 9 36
0 10 4 22 8 27 5 6 17 37 26 70 10 33 23 76 28 95 6 19 14 43 19 52 5 10 9 26
9 36 0 10 4 22 8 27 4 6 16 37 26 70 10 33 22 68 27 77 5 10 9 24 9 31 0 7 11
37 25 65 14 29 25 61 25 71 0 11 5 23 10 26 6 3 10 16 10 29 0 12 4 26 8 32 5
5 21 50 37 99 15 50 34 104 41 122 8 17 23 62 35 100 11 37 28 86 38 108 40
85 51 114 51 128 0 8 9 32 19 54 22 43 42 92 61 143 6 19 20 53 30 75 42 93
50 114 50 124 0 6 4 19 9 29 24 45 61 130 61 140 0 5 9 27 19 49 11 21 27 56
36 78 9 22 20 49 25 60 4 11 24 55 44 97 20 43 36 81 36 85 0 4 16 42 36 83
20 41 39 84 44 95 4 11 23 54 43 95 19 41 48 104 65 140 17 36 49 106 72 155
23 50 54 117 70 150 16 33 52 116 80 185 90 216 301 628 339 660 10 8 23 29
28 45 6 17 45 88 87 158 42 71 76 133 76 139 0 6 6 19 14 27 7 9 27 41 43 71
16 30 42 74 56 97 15 24 27 45 27 48 0 3 11 22 23 43 13 20 43 71 67 112 24
41 64 109 90 150 26 41 49 80 51 85 2 6 37 65 78 130 41 66 87 141 104 168 16
26 33 47 38 47 5 0 9 7 9 15 0 19 69 125 81 125 5 0 9 8 9 19 0 10 11 30 25
45 14 15 25 29 25 31 0 8 113 180 125 190 6 6 14 17 18 25 18 42 145 224 166
240 4 3 15 21 25 40 20 41 56 92 94 136 15 17 33 43 41 58 8 15 30 42 48 61
18 19 33 38 33 43 0 5 10 20 23 34 12 13 29 37 37 52 8 15 22 32 32 37 10 5
18 16 18 25 0 8 7 17 15 20 8 4 15 12 15 20 0 7 9 18 20 24 11 6 20 17 20 25
0 8 15 29 33 47 19 18 37 41 40 51 4 9 11 17 17 17 5 0 10 5 10 11 0 6 22 31
50 56 27 25 50 50 50 57 0 7 14 22 30 34 16 13 30 29 30 37 0 8 9 19 20 25 11
6 20 16 20 23 0 7 25 35 55 61 30 26 55 54 55 62 0 8 7 17 15 20 8 4 15 12 15
19 0 8 18 29 40 48 22 19 40 38 40 44 0 5 14 19 30 31 16 13 30 29 30 37 0 7
18 29 40 48 22 19 40 37 40 42 0 4 17 24 38 44 21 21 41 45 45 54 4 10 18 22
32 27 14 5 28 18 32 27 7 19 51 70 209 235 l102 107 18 -27 c30 -44 42 -69 88
-186 241 -606 388 -1092 524 -1736 207 -970 261 -1872 171 -2875 -28 -323 -79
-692 -109 -795 -5 -19 -10 -54 -10 -77 0 -24 -3 -43 -8 -43 -4 0 -41 34 -82
76 -200 203 -603 554 -635 554 -4 0 -26 14 -51 31 -51 34 -114 50 -114 28 1
-23 21 -43 119 -114 52 -37 183 -146 290 -243 190 -169 501 -469 501 -482 0
-4 29 -35 65 -69 36 -35 65 -66 65 -71 0 -4 14 -20 30 -33 16 -14 30 -30 30
-35 0 -6 16 -24 35 -41 19 -17 35 -35 35 -40 0 -5 16 -23 35 -40 19 -17 35
-35 35 -40 0 -5 11 -18 25 -29 14 -11 25 -24 25 -30 0 -6 13 -22 30 -35 17
-14 30 -30 30 -36 0 -6 9 -16 20 -23 11 -7 20 -18 20 -25 0 -7 9 -18 20 -25
11 -7 20 -19 20 -26 0 -7 7 -15 15 -18 8 -4 15 -12 15 -18 0 -19 50 -58 65
-52 18 6 43 87 115 372 62 244 85 341 101 439 5 33 18 96 29 140 18 78 72 365
85 455 3 25 10 59 15 75 13 43 47 400 65 665 78 1216 -53 3058 -315 4415 -56
288 -182 792 -214 854 -18 33 -18 34 -74 28 -57 -5 -238 -60 -257 -78 -5 -5
-19 -9 -31 -9 -13 0 -25 -4 -29 -9 -3 -5 -20 -13 -37 -17 -18 -3 -39 -10 -48
-14 -8 -4 -28 -13 -45 -20 -16 -7 -38 -16 -47 -21 -10 -5 -23 -9 -29 -9 -11 0
-43 -13 -135 -56 -28 -13 -54 -24 -58 -24 -14 0 -355 -165 -471 -229 -38 -21
-92 -51 -120 -66 -27 -16 -64 -36 -82 -46 -17 -10 -50 -29 -72 -43 -22 -15
-42 -26 -45 -26 -6 0 -107 -62 -143 -87 -17 -13 -34 -23 -37 -23 -3 0 -27 -15
-53 -34 -27 -19 -67 -45 -89 -58 -59 -33 -177 -112 -259 -173 -356 -263 -542
-408 -674 -524 -298 -261 -350 -310 -591 -552 -289 -290 -588 -615 -626 -680
-6 -10 -33 -43 -60 -73 -61 -67 -97 -114 -106 -138 -4 -10 -12 -18 -18 -18 -5
0 -10 -5 -10 -12 0 -6 -7 -20 -17 -30 -20 -22 -37 -51 -58 -98 -33 -73 -49
-113 -71 -175 -10 -27 -26 -65 -36 -83 -10 -18 -18 -39 -18 -47 0 -9 -4 -23
-9 -33 -5 -9 -17 -37 -26 -62 -10 -25 -22 -56 -28 -70 -20 -51 -26 -66 -42
-115 -10 -27 -20 -59 -25 -70 -4 -11 -22 -65 -40 -120 -18 -55 -36 -104 -41
-110 -5 -5 -9 -17 -9 -27 0 -10 -4 -26 -9 -36 -6 -9 -23 -53 -39 -97 -17 -44
-39 -102 -50 -130 -66 -162 -113 -297 -178 -515 -15 -52 -31 -99 -36 -105 -4
-5 -8 -19 -8 -30 0 -12 -3 -24 -6 -28 -3 -3 -19 -45 -35 -94 -16 -48 -33 -97
-38 -108 -5 -11 -21 -60 -36 -110 -15 -49 -31 -99 -36 -110 -4 -11 -20 -58
-34 -105 -15 -47 -31 -93 -36 -102 -5 -10 -9 -25 -9 -33 0 -8 -4 -23 -9 -33
-5 -9 -17 -44 -26 -77 -10 -33 -21 -68 -26 -77 -5 -10 -9 -25 -9 -33 0 -8 -4
-23 -9 -33 -5 -9 -17 -44 -26 -77 -17 -62 -31 -105 -45 -140 -4 -11 -16 -47
-25 -80 -20 -73 -33 -109 -53 -155 -13 -29 -50 -152 -69 -225 -2 -11 -8 -29
-12 -40 -10 -24 -34 -103 -51 -165 -7 -25 -16 -54 -20 -65 -4 -11 -13 -38 -18
-60 -6 -22 -22 -76 -35 -120 -33 -109 -62 -208 -82 -280 -9 -33 -21 -69 -25
-80 -5 -11 -11 -31 -13 -45 -3 -14 -14 -59 -26 -100 -12 -41 -26 -93 -32 -115
-6 -22 -15 -49 -19 -60 -5 -11 -18 -58 -30 -105 -12 -47 -26 -98 -30 -115 -30
-101 -63 -224 -67 -245 -2 -14 -8 -34 -13 -45 -12 -30 -67 -235 -77 -285 -2
-14 -8 -34 -13 -45 -5 -11 -11 -31 -13 -45 -3 -14 -12 -52 -22 -85 -9 -33 -19
-71 -22 -85 -2 -14 -8 -34 -13 -45 -7 -17 -19 -63 -61 -237 -5 -21 -13 -55
-18 -75 -42 -175 -54 -221 -61 -238 -5 -11 -11 -31 -13 -45 -5 -24 -30 -129
-47 -200 -5 -19 -13 -53 -19 -75 -5 -22 -16 -65 -24 -95 -8 -30 -22 -91 -32
-135 -9 -44 -21 -88 -26 -97 -5 -10 -9 -29 -9 -42 0 -14 -4 -35 -9 -48 -5 -13
-17 -57 -25 -98 -23 -104 -29 -129 -70 -260 -19 -63 -44 -151 -55 -195 -10
-44 -35 -138 -54 -210 -65 -243 -109 -454 -126 -607 -6 -54 -42 -222 -80 -375
-116 -463 -176 -772 -256 -1303 -19 -129 -44 -293 -55 -365 -11 -71 -31 -229
-43 -350 -18 -177 -25 -220 -37 -220 -12 0 -19 43 -37 220 -12 121 -32 279
-43 350 -11 72 -36 236 -55 365 -80 530 -140 840 -256 1304 -38 153 -74 322
-80 375 -17 152 -61 363 -126 606 -19 72 -44 166 -54 210 -11 44 -36 132 -55
195 -41 131 -47 156 -70 260 -8 41 -20 85 -25 98 -5 13 -9 34 -9 48 0 13 -4
32 -9 42 -5 9 -17 53 -26 97 -10 44 -24 105 -32 135 -8 30 -19 72 -24 93 -5
20 -13 54 -18 75 -23 93 -43 179 -48 202 -2 14 -8 34 -13 45 -7 17 -26 94 -61
240 -6 22 -14 56 -19 75 -4 19 -18 76 -30 125 -12 50 -26 99 -30 110 -5 11
-11 31 -13 45 -3 14 -13 52 -22 85 -10 33 -19 71 -22 85 -2 14 -8 34 -13 45
-5 11 -11 31 -13 45 -10 50 -65 255 -77 285 -5 11 -11 31 -13 45 -4 21 -37
144 -67 245 -4 17 -18 68 -30 115 -12 47 -25 94 -30 105 -4 11 -13 38 -19 60
-6 22 -20 74 -32 115 -12 41 -23 86 -26 100 -2 14 -8 34 -13 45 -4 11 -16 47
-25 80 -20 72 -49 171 -82 280 -13 44 -29 98 -35 120 -5 22 -14 49 -18 60 -4
11 -13 40 -20 65 -17 62 -41 141 -51 165 -4 11 -10 29 -12 40 -19 73 -56 196
-69 225 -20 46 -33 82 -53 155 -9 33 -21 69 -25 80 -5 11 -21 61 -35 110 -15
50 -31 98 -36 107 -5 10 -9 25 -9 33 0 8 -4 23 -9 33 -5 9 -16 44 -26 77 -9
33 -21 68 -26 77 -5 10 -9 25 -9 33 0 8 -4 23 -9 33 -5 9 -21 55 -36 102 -14
47 -30 94 -34 105 -5 11 -21 61 -36 110 -15 50 -31 99 -36 110 -5 11 -22 60
-38 108 -16 49 -32 91 -35 94 -3 4 -6 16 -6 28 0 11 -4 25 -8 31 -5 5 -21 52
-36 104 -65 218 -112 353 -178 515 -11 28 -33 86 -50 130 -16 44 -33 88 -39
97 -5 10 -9 26 -9 36 0 10 -4 22 -9 28 -5 5 -23 54 -41 109 -18 55 -36 109
-40 120 -5 11 -15 43 -25 70 -9 28 -21 61 -27 75 -6 14 -14 34 -18 45 -25 68
-43 112 -51 127 -5 10 -9 24 -9 33 0 8 -8 29 -18 47 -10 18 -26 56 -36 83 -49
138 -95 235 -129 273 -10 10 -17 24 -17 30 0 7 -5 12 -10 12 -6 0 -14 8 -18
18 -9 24 -45 71 -106 138 -27 30 -54 63 -60 73 -38 65 -337 390 -626 680 -241
242 -293 291 -591 552 -132 116 -318 261 -674 524 -82 61 -200 140 -259 173
-22 13 -62 39 -89 58 -26 19 -50 34 -53 34 -3 0 -20 10 -37 23 -36 25 -137 87
-143 87 -3 0 -23 12 -45 26 -23 14 -62 37 -87 51 -26 15 -63 35 -82 46 -152
87 -554 287 -576 287 -4 0 -30 11 -58 24 -92 43 -124 56 -135 56 -6 0 -19 4
-29 9 -9 5 -30 14 -47 21 -16 7 -37 16 -45 20 -9 4 -30 11 -48 14 -17 4 -34
12 -37 17 -4 5 -16 9 -29 9 -12 0 -26 4 -31 9 -19 18 -200 73 -257 78 -56 6
-56 5 -74 -28z"/>
<path d="M2205 19659 c-245 -16 -300 -21 -309 -30 -6 -5 -43 -9 -83 -9 -42 0
-73 -4 -73 -10 0 -6 -30 -10 -70 -10 -38 0 -70 -4 -70 -9 0 -5 -47 -12 -105
-16 -58 -4 -105 -11 -105 -16 0 -5 -20 -9 -45 -9 -25 0 -45 -4 -45 -10 0 -5
-18 -10 -39 -10 -22 0 -42 -4 -45 -9 -3 -5 -42 -12 -86 -16 -44 -4 -80 -11
-80 -16 0 -5 -18 -9 -40 -9 -22 0 -40 -4 -40 -10 0 -5 -20 -10 -45 -10 -25 0
-45 -3 -45 -8 0 -14 -102 -33 -116 -21 -23 19 -41 3 -59 -51 -27 -80 -22 -84
95 -76 67 5 100 3 100 -4 0 -6 34 -10 90 -10 50 0 90 -4 90 -9 0 -5 58 -12
130 -16 71 -4 132 -11 136 -16 3 -5 29 -9 59 -9 30 0 57 -4 60 -10 3 -5 26
-10 51 -10 24 0 44 -4 44 -9 0 -4 34 -11 75 -14 42 -4 84 -11 95 -17 10 -5 34
-10 54 -10 19 0 38 -4 41 -10 3 -5 21 -10 40 -10 19 0 37 -4 40 -10 3 -5 21
-10 40 -10 19 0 36 -4 39 -9 3 -5 33 -12 66 -16 33 -4 63 -11 66 -16 3 -5 18
-9 35 -9 16 0 29 -4 29 -10 0 -5 13 -10 29 -10 17 0 32 -4 35 -9 3 -4 25 -11
48 -15 47 -7 103 -23 130 -37 10 -5 25 -9 33 -9 8 0 23 -4 33 -9 9 -5 47 -18
85 -28 37 -10 67 -21 67 -25 0 -5 11 -8 24 -8 14 0 28 -4 31 -10 3 -5 17 -10
30 -10 13 0 26 -4 29 -9 3 -5 22 -12 42 -16 20 -3 45 -11 55 -16 11 -5 28 -13
39 -19 11 -5 27 -10 35 -10 8 0 15 -4 15 -10 0 -5 8 -10 18 -10 22 0 116 -33
120 -42 2 -5 10 -8 18 -8 8 0 22 -4 32 -9 9 -5 37 -17 62 -26 25 -10 63 -25
85 -35 22 -10 58 -25 80 -35 22 -9 57 -25 78 -36 22 -10 45 -19 53 -19 8 0 14
-4 14 -10 0 -5 7 -10 15 -10 18 0 89 -32 93 -42 2 -5 12 -8 23 -8 10 0 19 -4
19 -10 0 -5 4 -10 10 -10 15 0 125 -53 128 -62 2 -4 9 -8 15 -8 15 0 121 -53
125 -62 2 -5 12 -8 22 -8 10 0 20 -3 22 -7 2 -5 35 -24 73 -44 103 -52 179
-93 185 -99 7 -7 78 -46 123 -67 20 -10 37 -21 37 -25 0 -5 5 -8 10 -8 6 0 37
-16 68 -37 31 -20 77 -47 101 -61 25 -14 53 -33 63 -42 11 -10 37 -25 58 -35
22 -10 40 -22 40 -27 0 -4 7 -8 15 -8 8 0 15 -4 15 -10 0 -5 5 -10 10 -10 12
0 94 -52 98 -62 2 -5 10 -8 17 -8 7 0 15 -3 17 -7 2 -5 41 -33 88 -63 47 -30
87 -57 90 -61 3 -3 59 -43 125 -89 66 -46 129 -92 139 -102 11 -10 23 -18 26
-18 4 0 17 -8 29 -19 12 -10 37 -29 56 -42 19 -13 35 -27 35 -31 0 -5 5 -8 10
-8 6 0 22 -11 36 -25 14 -14 28 -25 33 -25 4 0 24 -16 45 -35 21 -19 41 -35
45 -35 3 0 20 -12 36 -28 17 -15 48 -40 70 -57 40 -29 83 -66 138 -117 17 -16
33 -28 36 -28 3 0 33 -25 66 -56 33 -30 80 -72 105 -92 234 -194 884 -851 898
-908 2 -8 8 -14 13 -14 5 0 9 -5 9 -11 0 -6 6 -16 13 -24 6 -7 21 -25 31 -40
11 -14 28 -36 38 -47 10 -12 18 -24 18 -27 0 -3 12 -19 26 -36 14 -16 43 -55
64 -85 21 -31 45 -62 54 -69 22 -19 126 -166 126 -179 0 -6 4 -12 8 -14 11 -4
82 -115 82 -127 0 -5 3 -11 8 -13 9 -4 81 -117 113 -178 13 -25 27 -46 32 -48
4 -2 7 -8 7 -13 0 -5 11 -27 25 -49 14 -22 25 -46 25 -54 0 -8 3 -16 8 -18 9
-4 51 -76 59 -100 3 -10 9 -18 14 -18 5 0 9 -5 9 -10 0 -6 11 -27 24 -48 36
-56 72 -119 108 -192 18 -36 37 -70 43 -76 6 -6 29 -49 52 -95 91 -185 193
-398 193 -403 0 -22 165 -279 221 -343 16 -18 44 -58 64 -88 29 -47 39 -55 65
-55 49 0 46 21 -53 385 -20 72 -43 171 -52 220 -15 82 -15 94 0 134 8 24 24
51 35 58 11 8 20 18 20 22 0 10 122 132 148 147 14 9 26 8 53 -3 59 -26 145
-51 251 -75 146 -33 370 -33 516 0 106 24 192 49 251 75 27 11 39 12 53 3 26
-15 148 -137 148 -147 0 -4 9 -14 20 -22 11 -7 27 -34 35 -58 15 -40 15 -52 0
-134 -9 -49 -32 -148 -52 -220 -69 -254 -83 -310 -83 -347 0 -36 2 -38 30 -38
26 0 36 8 65 55 20 30 48 70 64 88 56 64 221 321 221 343 0 5 102 218 193 403
23 46 46 89 52 95 6 6 25 40 43 76 36 73 72 136 108 192 13 21 24 42 24 47 0
5 3 11 8 13 9 4 51 76 59 101 3 9 9 17 14 17 5 0 9 7 9 15 0 9 11 33 25 55 14
22 25 44 25 49 0 5 3 11 8 13 4 2 18 23 31 48 32 61 104 174 113 178 5 2 8 8
8 13 0 12 71 123 82 127 4 2 8 8 8 14 0 13 104 160 126 179 9 7 33 38 54 69
21 30 50 69 64 85 14 17 26 33 26 36 0 3 8 15 18 27 10 11 27 33 38 47 10 15
25 33 32 40 6 8 12 18 12 24 0 6 4 11 9 11 5 0 11 6 13 14 14 57 664 714 898
908 25 20 72 62 105 92 33 31 63 56 66 56 3 0 19 12 36 28 55 51 98 88 138
117 22 17 54 42 70 57 17 16 33 28 36 28 4 0 24 16 45 35 21 19 41 35 45 35 5
0 19 11 33 25 14 14 30 25 36 25 5 0 10 3 10 8 0 4 16 18 35 31 19 13 44 32
56 42 12 11 25 19 29 19 3 0 15 8 26 18 10 10 73 56 139 102 66 46 122 87 125
90 3 3 43 30 90 60 47 30 86 58 88 63 2 4 10 7 17 7 7 0 15 3 17 8 4 10 86 62
98 62 5 0 10 5 10 10 0 6 7 10 15 10 8 0 15 4 15 8 0 5 18 17 40 27 21 10 47
25 58 35 10 9 38 28 63 42 24 14 70 41 101 61 31 21 62 37 68 37 5 0 10 3 10
8 0 4 17 15 38 25 44 21 115 60 122 67 6 6 82 47 185 99 39 20 71 39 73 44 2
4 12 7 22 7 10 0 20 3 22 8 4 9 110 62 125 62 6 0 13 4 15 8 3 9 113 62 128
62 6 0 10 5 10 10 0 6 9 10 19 10 11 0 21 3 23 8 4 10 75 42 93 42 8 0 15 5
15 10 0 6 6 10 14 10 8 0 31 9 53 19 21 11 56 27 78 36 22 10 58 25 80 35 22
10 60 25 85 35 25 9 53 21 62 26 10 5 24 9 32 9 8 0 16 3 18 8 4 9 98 42 121
42 9 0 17 5 17 10 0 6 7 10 15 10 15 0 24 4 71 28 12 6 38 14 58 17 20 4 39
11 42 16 3 5 16 9 29 9 13 0 27 5 30 10 3 6 17 10 31 10 13 0 24 3 24 8 0 4
30 15 68 25 37 10 75 23 84 28 10 5 25 9 33 9 8 0 23 4 33 9 27 14 83 30 130
37 23 4 45 11 48 15 3 5 18 9 35 9 16 0 29 5 29 10 0 6 13 10 29 10 17 0 32 4
35 9 3 5 33 12 66 16 33 4 63 11 66 16 3 5 20 9 39 9 19 0 37 5 40 10 3 6 21
10 40 10 19 0 37 5 40 10 3 6 22 10 41 10 20 0 44 5 54 10 11 6 53 13 95 17
41 3 75 10 75 14 0 5 20 9 44 9 25 0 48 5 51 10 3 6 30 10 60 10 30 0 56 4 59
9 4 5 65 12 136 16 72 4 130 11 130 16 0 5 41 9 90 9 56 0 90 4 90 10 0 7 33
9 100 4 117 -8 122 -4 95 76 -18 54 -36 70 -59 51 -14 -12 -116 7 -116 21 0 5
-20 8 -45 8 -25 0 -45 5 -45 10 0 6 -18 10 -40 10 -22 0 -40 4 -40 9 0 5 -36
12 -80 16 -44 4 -83 11 -86 16 -3 5 -23 9 -45 9 -21 0 -39 5 -39 10 0 6 -20
10 -45 10 -25 0 -45 4 -45 9 0 5 -47 12 -105 16 -58 4 -105 11 -105 16 0 5
-31 9 -70 9 -40 0 -70 4 -70 10 0 6 -31 10 -73 10 -40 0 -77 4 -82 9 -6 5 -46
12 -90 15 -44 3 -147 9 -230 15 -339 22 -1040 11 -1355 -20 -52 -6 -130 -12
-172 -15 -43 -3 -78 -10 -78 -15 0 -5 -29 -9 -65 -9 -36 0 -65 -4 -65 -8 0 -7
-49 -14 -267 -38 -29 -3 -53 -10 -53 -15 0 -5 -20 -9 -45 -9 -25 0 -45 -4 -45
-8 0 -7 -76 -22 -197 -38 -24 -3 -43 -10 -43 -15 0 -5 -18 -9 -40 -9 -22 0
-40 -4 -40 -9 0 -5 -17 -11 -37 -14 -21 -3 -67 -13 -103 -22 -36 -9 -77 -19
-92 -22 -16 -3 -28 -9 -28 -14 0 -5 -13 -9 -29 -9 -16 0 -31 -4 -33 -8 -3 -9
-144 -51 -195 -59 -18 -3 -33 -9 -33 -14 0 -4 -15 -11 -33 -14 -19 -4 -46 -20
-61 -36 -15 -16 -36 -29 -47 -29 -11 0 -22 -7 -25 -15 -4 -8 -11 -15 -18 -15
-6 0 -17 -9 -24 -20 -7 -11 -21 -20 -32 -20 -11 0 -20 -4 -20 -9 0 -5 -10 -13
-22 -17 -13 -4 -29 -15 -36 -25 -7 -11 -20 -19 -28 -19 -8 0 -14 -4 -14 -10 0
-5 -9 -10 -20 -10 -11 0 -20 -4 -20 -9 0 -5 -14 -14 -30 -20 -17 -5 -33 -17
-36 -26 -3 -8 -12 -15 -20 -15 -8 0 -14 -4 -14 -10 0 -5 -7 -10 -15 -10 -9 0
-18 -7 -21 -15 -4 -8 -12 -15 -20 -15 -8 0 -14 -4 -14 -10 0 -5 -6 -10 -13
-10 -7 0 -20 -9 -30 -20 -9 -11 -23 -20 -31 -20 -8 0 -23 -11 -34 -25 -11 -14
-25 -25 -31 -25 -6 0 -11 -4 -11 -10 0 -5 -6 -10 -14 -10 -8 0 -23 -11 -34
-25 -11 -14 -25 -25 -31 -25 -6 0 -11 -4 -11 -10 0 -5 -6 -10 -14 -10 -8 0
-23 -11 -34 -25 -11 -14 -25 -25 -30 -25 -6 0 -23 -16 -38 -35 -14 -19 -33
-35 -40 -35 -8 0 -14 -4 -14 -10 0 -5 -6 -10 -14 -10 -8 0 -23 -11 -34 -25
-11 -14 -24 -25 -30 -25 -6 0 -22 -13 -35 -30 -14 -16 -30 -30 -35 -30 -6 0
-24 -16 -41 -35 -17 -19 -35 -35 -40 -35 -6 0 -22 -16 -37 -35 -14 -19 -32
-35 -40 -35 -7 0 -19 -12 -26 -27 -7 -15 -24 -33 -37 -39 -13 -7 -28 -22 -35
-35 -6 -13 -22 -29 -35 -35 -32 -16 -121 -105 -121 -121 0 -8 -8 -16 -17 -20
-25 -8 -73 -54 -73 -69 0 -7 -12 -19 -27 -26 -15 -7 -33 -25 -40 -39 -7 -15
-35 -46 -63 -70 -27 -24 -50 -49 -50 -56 0 -7 -11 -20 -25 -29 -14 -9 -25 -23
-25 -30 0 -8 -11 -19 -25 -24 -14 -5 -25 -15 -25 -22 0 -7 -9 -19 -20 -26 -11
-7 -20 -19 -20 -27 0 -8 -11 -22 -25 -31 -14 -9 -25 -23 -25 -30 0 -8 -4 -14
-10 -14 -5 0 -10 -7 -10 -15 0 -8 -16 -27 -35 -42 -19 -15 -35 -35 -35 -45 0
-9 -13 -28 -30 -41 -16 -14 -30 -30 -30 -36 0 -6 -5 -11 -10 -11 -6 0 -15 -11
-20 -25 -5 -14 -17 -28 -25 -31 -8 -4 -15 -12 -15 -19 0 -7 -7 -15 -15 -19 -8
-3 -15 -12 -15 -21 0 -8 -4 -15 -10 -15 -5 0 -10 -7 -10 -15 0 -8 -11 -22 -25
-31 -14 -9 -25 -23 -25 -30 0 -8 -4 -14 -10 -14 -5 0 -10 -7 -10 -15 0 -8 -4
-15 -10 -15 -5 0 -10 -6 -10 -14 0 -8 -7 -16 -15 -20 -8 -3 -15 -12 -15 -21 0
-8 -4 -15 -10 -15 -5 0 -10 -6 -10 -13 0 -7 -9 -23 -20 -35 -11 -12 -20 -25
-20 -31 0 -5 -7 -11 -15 -15 -8 -3 -15 -14 -15 -25 0 -11 -8 -26 -19 -33 -10
-7 -21 -23 -25 -35 -4 -13 -12 -23 -17 -23 -5 0 -9 -9 -9 -19 0 -10 -13 -33
-29 -50 -17 -18 -33 -41 -36 -52 -4 -10 -11 -19 -16 -19 -5 0 -9 -8 -9 -18 0
-10 -8 -27 -19 -38 -10 -11 -22 -30 -25 -42 -4 -12 -12 -22 -17 -22 -5 0 -9
-8 -9 -18 0 -10 -8 -27 -19 -38 -10 -11 -22 -30 -25 -42 -4 -12 -12 -22 -17
-22 -5 0 -9 -9 -9 -20 0 -11 -4 -20 -10 -20 -5 0 -10 -8 -10 -18 0 -10 -9 -28
-20 -40 -11 -12 -20 -24 -20 -28 0 -15 -53 -114 -61 -114 -5 0 -9 -9 -9 -19 0
-11 -7 -26 -15 -35 -8 -8 -15 -23 -15 -33 0 -11 -9 -29 -20 -41 -11 -12 -20
-26 -20 -31 0 -15 -34 -85 -42 -89 -5 -2 -8 -12 -8 -21 0 -10 -34 -92 -76
-182 -102 -219 -140 -313 -180 -444 -18 -60 -45 -146 -59 -190 -14 -44 -46
-165 -71 -270 -25 -104 -49 -191 -55 -193 -5 -2 -9 -10 -9 -18 0 -8 -9 -32
-19 -52 -18 -36 -24 -39 -164 -84 -266 -87 -388 -87 -654 0 -140 45 -146 48
-164 84 -10 20 -19 44 -19 52 0 8 -4 16 -9 18 -6 2 -30 89 -55 193 -25 105
-57 226 -71 270 -14 44 -41 130 -59 190 -40 131 -78 225 -180 444 -42 90 -76
172 -76 182 0 9 -3 19 -7 21 -9 4 -43 74 -43 89 0 5 -9 19 -20 31 -11 12 -20
30 -20 41 0 10 -7 25 -15 33 -8 9 -15 24 -15 35 0 10 -4 19 -9 19 -8 0 -61 99
-61 114 0 4 -9 16 -20 28 -11 12 -20 30 -20 40 0 10 -4 18 -10 18 -5 0 -10 9
-10 20 0 11 -4 20 -9 20 -5 0 -13 10 -17 22 -3 12 -15 31 -25 42 -11 11 -19
28 -19 38 0 10 -4 18 -9 18 -5 0 -13 10 -17 22 -3 12 -15 31 -25 42 -11 11
-19 28 -19 38 0 10 -4 18 -9 18 -5 0 -12 9 -16 19 -3 11 -19 34 -36 52 -16 17
-29 40 -29 50 0 10 -4 19 -9 19 -5 0 -13 10 -17 23 -4 12 -15 28 -25 35 -11 7
-19 22 -19 33 0 11 -7 22 -15 25 -8 4 -15 10 -15 15 0 6 -9 19 -20 31 -11 12
-20 28 -20 35 0 7 -4 13 -10 13 -5 0 -10 7 -10 15 0 9 -7 18 -15 21 -8 4 -15
12 -15 20 0 8 -4 14 -10 14 -5 0 -10 7 -10 15 0 8 -4 15 -10 15 -5 0 -10 6
-10 14 0 7 -11 21 -25 30 -14 9 -25 23 -25 31 0 8 -4 15 -10 15 -5 0 -10 7
-10 15 0 9 -7 18 -15 21 -8 4 -15 12 -15 19 0 7 -7 15 -15 19 -8 3 -20 17 -25
31 -5 14 -14 25 -20 25 -5 0 -10 5 -10 11 0 6 -13 22 -30 36 -16 13 -30 32
-30 41 0 10 -16 30 -35 45 -19 15 -35 34 -35 42 0 8 -4 15 -10 15 -5 0 -10 6
-10 14 0 7 -11 21 -25 30 -14 9 -25 23 -25 31 0 8 -9 20 -20 27 -11 7 -20 19
-20 26 0 7 -11 17 -25 22 -14 5 -25 16 -25 24 0 7 -11 21 -25 30 -14 9 -25 22
-25 29 0 7 -23 32 -50 56 -28 24 -56 55 -63 70 -7 14 -25 32 -40 39 -15 7 -27
19 -27 26 0 15 -48 61 -72 69 -10 4 -18 12 -18 20 0 16 -89 105 -121 121 -13
6 -29 22 -35 35 -7 13 -22 28 -35 35 -13 6 -30 24 -37 39 -7 15 -19 27 -26 27
-8 0 -26 16 -40 35 -15 19 -31 35 -37 35 -5 0 -23 16 -40 35 -17 19 -35 35
-41 35 -5 0 -21 14 -35 30 -13 17 -29 30 -35 30 -6 0 -19 11 -30 25 -11 14
-26 25 -34 25 -8 0 -14 5 -14 10 0 6 -6 10 -14 10 -7 0 -26 16 -40 35 -15 19
-32 35 -38 35 -5 0 -19 11 -30 25 -11 14 -26 25 -34 25 -8 0 -14 5 -14 10 0 6
-5 10 -11 10 -6 0 -20 11 -31 25 -11 14 -26 25 -34 25 -8 0 -14 5 -14 10 0 6
-5 10 -11 10 -6 0 -20 11 -31 25 -11 14 -26 25 -34 25 -8 0 -22 9 -31 20 -10
11 -23 20 -30 20 -7 0 -13 5 -13 10 0 6 -6 10 -14 10 -8 0 -16 7 -20 15 -3 8
-12 15 -21 15 -8 0 -15 5 -15 10 0 6 -6 10 -14 10 -8 0 -17 7 -20 15 -3 9 -19
21 -36 26 -16 6 -30 15 -30 20 0 5 -9 9 -20 9 -11 0 -20 5 -20 10 0 6 -6 10
-14 10 -8 0 -21 8 -28 19 -7 10 -23 21 -35 25 -13 4 -23 12 -23 17 0 5 -9 9
-20 9 -11 0 -25 9 -32 20 -7 11 -18 20 -24 20 -7 0 -14 7 -18 15 -3 8 -14 15
-25 15 -11 0 -32 13 -47 29 -15 16 -42 32 -61 36 -18 3 -33 10 -33 14 0 5 -15
11 -32 14 -52 8 -193 50 -196 59 -2 4 -17 8 -33 8 -16 0 -29 4 -29 9 0 5 -12
11 -27 14 -16 3 -57 13 -93 22 -36 9 -82 19 -102 22 -21 3 -38 9 -38 14 0 5
-18 9 -40 9 -22 0 -40 4 -40 9 0 5 -19 12 -42 15 -122 16 -198 31 -198 38 0 4
-20 8 -45 8 -25 0 -45 4 -45 9 0 5 -24 12 -52 15 -219 24 -268 31 -268 38 0 4
-29 8 -65 8 -36 0 -65 4 -65 9 0 5 -35 12 -77 15 -43 3 -121 9 -173 15 -239
24 -425 30 -820 29 -234 -1 -479 -5 -545 -9z"/>
</g>
</svg>
